<svg width="143" height="31" viewBox="0 0 143 31" fill="none" xmlns="http://www.w3.org/2000/svg">
<path d="M0.00800014 24V1.6H16.36V5.088H4.168V20.512H16.808V24H0.00800014ZM3.848 14.336V10.912H14.984V14.336H3.848ZM28.6493 30.432C27.0706 30.432 25.5239 30.2187 24.0093 29.792C22.5159 29.3867 21.2893 28.7893 20.3293 28L22.1213 24.992C22.8679 25.6107 23.8066 26.1013 24.9373 26.464C26.0893 26.848 27.2519 27.04 28.4253 27.04C30.3026 27.04 31.6786 26.6027 32.5533 25.728C33.4279 24.8747 33.8653 23.584 33.8653 21.856V18.816L34.1853 14.944L34.0573 11.072V6.912H37.8653V21.408C37.8653 24.5013 37.0759 26.7733 35.4973 28.224C33.9186 29.696 31.6359 30.432 28.6493 30.432ZM28.1373 23.232C26.5159 23.232 25.0439 22.8907 23.7213 22.208C22.4199 21.504 21.3853 20.5333 20.6173 19.296C19.8706 18.0587 19.4973 16.608 19.4973 14.944C19.4973 13.3013 19.8706 11.8613 20.6173 10.624C21.3853 9.38667 22.4199 8.42667 23.7213 7.744C25.0439 7.06133 26.5159 6.72 28.1373 6.72C29.5879 6.72 30.8893 7.008 32.0413 7.584C33.1933 8.16 34.1106 9.056 34.7933 10.272C35.4973 11.488 35.8493 13.0453 35.8493 14.944C35.8493 16.8427 35.4973 18.4107 34.7933 19.648C34.1106 20.864 33.1933 21.7707 32.0413 22.368C30.8893 22.944 29.5879 23.232 28.1373 23.232ZM28.7453 19.84C29.7479 19.84 30.6439 19.6373 31.4333 19.232C32.2226 18.8053 32.8306 18.2293 33.2573 17.504C33.7053 16.7573 33.9293 15.904 33.9293 14.944C33.9293 13.984 33.7053 13.1413 33.2573 12.416C32.8306 11.6693 32.2226 11.104 31.4333 10.72C30.6439 10.3147 29.7479 10.112 28.7453 10.112C27.7426 10.112 26.8359 10.3147 26.0253 10.72C25.2359 11.104 24.6173 11.6693 24.1693 12.416C23.7426 13.1413 23.5293 13.984 23.5293 14.944C23.5293 15.904 23.7426 16.7573 24.1693 17.504C24.6173 18.2293 25.2359 18.8053 26.0253 19.232C26.8359 19.6373 27.7426 19.84 28.7453 19.84ZM44.532 30.432C43.7 30.432 42.868 30.2933 42.036 30.016C41.204 29.7387 40.5107 29.3547 39.956 28.864L41.556 25.92C41.9613 26.2827 42.42 26.5707 42.932 26.784C43.444 26.9973 43.9667 27.104 44.5 27.104C45.2253 27.104 45.812 26.9227 46.26 26.56C46.708 26.1973 47.124 25.5893 47.508 24.736L48.5 22.496L48.82 22.016L55.284 6.912H59.124L51.124 25.376C50.5907 26.656 49.9933 27.6693 49.332 28.416C48.692 29.1627 47.9667 29.6853 47.156 29.984C46.3667 30.2827 45.492 30.432 44.532 30.432ZM48.052 24.608L40.34 6.912H44.5L50.772 21.664L48.052 24.608Z" fill="#D2AC71"/>
<path d="M62.648 24V1.6H72.312C74.808 1.6 76.7387 2.10133 78.104 3.104C79.4907 4.10667 80.184 5.52533 80.184 7.36C80.184 8.576 79.896 9.6 79.32 10.432C78.7653 11.264 77.9973 11.8933 77.016 12.32C76.056 12.7467 75 12.96 73.848 12.96L74.392 12.192C75.8213 12.192 77.048 12.416 78.072 12.864C79.1173 13.2907 79.928 13.9413 80.504 14.816C81.08 15.6693 81.368 16.736 81.368 18.016C81.368 19.9147 80.664 21.3867 79.256 22.432C77.8693 23.4773 75.768 24 72.952 24H62.648ZM65.016 22.048H72.92C74.8827 22.048 76.3867 21.7173 77.432 21.056C78.4773 20.3733 79 19.296 79 17.824C79 16.3733 78.4773 15.3173 77.432 14.656C76.3867 13.9733 74.8827 13.632 72.92 13.632H64.76V11.68H72.152C73.944 11.68 75.3307 11.3387 76.312 10.656C77.3147 9.97333 77.816 8.96 77.816 7.616C77.816 6.25067 77.3147 5.23733 76.312 4.576C75.3307 3.89333 73.944 3.552 72.152 3.552H65.016V22.048ZM93.141 24.16C91.5197 24.16 90.0583 23.7973 88.757 23.072C87.477 22.3253 86.4637 21.312 85.717 20.032C84.9703 18.7307 84.597 17.248 84.597 15.584C84.597 13.8987 84.9703 12.416 85.717 11.136C86.4637 9.856 87.477 8.85333 88.757 8.128C90.037 7.40267 91.4983 7.04 93.141 7.04C94.805 7.04 96.277 7.40267 97.557 8.128C98.8583 8.85333 99.8717 9.856 100.597 11.136C101.344 12.416 101.717 13.8987 101.717 15.584C101.717 17.248 101.344 18.7307 100.597 20.032C99.8717 21.312 98.8583 22.3253 97.557 23.072C96.2557 23.7973 94.7837 24.16 93.141 24.16ZM93.141 22.144C94.357 22.144 95.4343 21.8773 96.373 21.344C97.3117 20.7893 98.0477 20.0213 98.581 19.04C99.1357 18.0373 99.413 16.8853 99.413 15.584C99.413 14.2613 99.1357 13.1093 98.581 12.128C98.0477 11.1467 97.3117 10.3893 96.373 9.856C95.4343 9.30133 94.3677 9.024 93.173 9.024C91.9783 9.024 90.9117 9.30133 89.973 9.856C89.0343 10.3893 88.2877 11.1467 87.733 12.128C87.1783 13.1093 86.901 14.2613 86.901 15.584C86.901 16.8853 87.1783 18.0373 87.733 19.04C88.2877 20.0213 89.0343 20.7893 89.973 21.344C90.9117 21.8773 91.9677 22.144 93.141 22.144ZM113.204 24.16C111.582 24.16 110.121 23.7973 108.82 23.072C107.54 22.3253 106.526 21.312 105.78 20.032C105.033 18.7307 104.66 17.248 104.66 15.584C104.66 13.8987 105.033 12.416 105.78 11.136C106.526 9.856 107.54 8.85333 108.82 8.128C110.1 7.40267 111.561 7.04 113.204 7.04C114.868 7.04 116.34 7.40267 117.62 8.128C118.921 8.85333 119.934 9.856 120.66 11.136C121.406 12.416 121.78 13.8987 121.78 15.584C121.78 17.248 121.406 18.7307 120.66 20.032C119.934 21.312 118.921 22.3253 117.62 23.072C116.318 23.7973 114.846 24.16 113.204 24.16ZM113.204 22.144C114.42 22.144 115.497 21.8773 116.436 21.344C117.374 20.7893 118.11 20.0213 118.644 19.04C119.198 18.0373 119.476 16.8853 119.476 15.584C119.476 14.2613 119.198 13.1093 118.644 12.128C118.11 11.1467 117.374 10.3893 116.436 9.856C115.497 9.30133 114.43 9.024 113.236 9.024C112.041 9.024 110.974 9.30133 110.036 9.856C109.097 10.3893 108.35 11.1467 107.796 12.128C107.241 13.1093 106.964 14.2613 106.964 15.584C106.964 16.8853 107.241 18.0373 107.796 19.04C108.35 20.0213 109.097 20.7893 110.036 21.344C110.974 21.8773 112.03 22.144 113.204 22.144ZM128.21 19.648L128.274 16.736L138.738 7.2H141.522L134.13 14.272L132.85 15.36L128.21 19.648ZM126.418 24V0.255999H128.69V24H126.418ZM139.442 24L132.434 15.264L133.906 13.504L142.226 24H139.442Z" fill="white"/>
</svg>
